<svg xmlns="http://www.w3.org/2000/svg" style="display:none">
  <symbol id="icon-sword" viewBox="0 0 24 24"><path fill="currentColor" d="M14.5 13.5L11 17l-4-4 3.5-3.5L6 6l1.5-1.5 4.5 4.5L16 6l1.5 1.5-4 4 4.5 4.5z"/></symbol>
  <symbol id="icon-shield" viewBox="0 0 24 24"><path fill="currentColor" d="M12 1L3 5v6c0 5.55 3.84 10.74 9 12 5.16-1.26 9-6.45 9-12V5l-9-4z"/></symbol>
  <symbol id="icon-potion" viewBox="0 0 24 24"><path fill="currentColor" d="M15 3H9v2h6V3zm-2 4h-2v2H9v4h2v2h2v-2h2V9h-2V7zm-5 8H7v4h10v-4h-1v2H8v-2z"/></symbol>
  <symbol id="icon-gem" viewBox="0 0 24 24"><path fill="currentColor" d="M12 2L2 9l10 13 10-13L12 2zm0 3.5L18.5 9 12 16.5 5.5 9 12 5.5z"/></symbol>
  <symbol id="icon-pet" viewBox="0 0 24 24"><path fill="currentColor" d="M12 2C6.48 2 2 6.48 2 12s4.48 10 10 10 10-4.48 10-10S17.52 2 12 2zm-1 15h-2v-2h2v2zm2-4h-2V7h2v6z"/></symbol>
</svg>